<svg xmlns="http://www.w3.org/2000/svg" xmlns:xlink="http://www.w3.org/1999/xlink" width="166" height="166" viewBox="0 0 166 166"><defs><clipPath id="a"><rect width="166" height="166" fill="none"/></clipPath></defs><g clip-path="url(#a)"><path d="M134.587,176.087a41.5,41.5,0,1,1,41.5,41.5,41.5,41.5,0,0,1-41.5-41.5" transform="translate(-51.587 -51.587)" fill="#fdc101"/><path d="M41.5,138.9A37.183,37.183,0,1,1,4.317,176.087,37.226,37.226,0,0,1,41.5,138.9m0-4.317a41.5,41.5,0,1,0,41.5,41.5,41.5,41.5,0,0,0-41.5-41.5" transform="translate(0 -51.587)" fill="#fff"/><path d="M176.087,4.317A37.183,37.183,0,1,1,138.9,41.5,37.226,37.226,0,0,1,176.087,4.317m0-4.317a41.5,41.5,0,1,0,41.5,41.5A41.5,41.5,0,0,0,176.087,0" transform="translate(-51.587)" fill="#fff"/><path d="M0,41.5A41.5,41.5,0,1,1,41.5,83,41.5,41.5,0,0,1,0,41.5" fill="#fdc101"/></g></svg>