<svg xmlns="http://www.w3.org/2000/svg" xmlns:xlink="http://www.w3.org/1999/xlink" width="150" height="150" viewBox="0 0 150 150"><defs><clipPath id="a"><rect width="150" height="150" fill="none"/></clipPath></defs><g transform="translate(0 0.382)"><g transform="translate(0 -0.382)" clip-path="url(#a)"><path d="M135,0a74.848,74.848,0,0,1,74.849,74.849A74.848,74.848,0,0,1,135,0" transform="translate(-60.151 0.302)" fill="#fff"/><path d="M156.922,156.922A74.628,74.628,0,0,1,209.849,135,74.848,74.848,0,0,1,135,209.849a74.628,74.628,0,0,1,21.922-52.927" transform="translate(-60.151 -59.849)" fill="#fdc101"/><path d="M0,74.849A74.848,74.848,0,0,1,74.849,0,74.628,74.628,0,0,1,52.927,52.927,74.628,74.628,0,0,1,0,74.849" transform="translate(0 0.302)" fill="#fdc101"/><path d="M52.927,156.922a74.628,74.628,0,0,1,21.922,52.927A74.848,74.848,0,0,1,0,135a74.628,74.628,0,0,1,52.927,21.922" transform="translate(0 -59.849)" fill="#fff"/></g></g></svg>